<svg xmlns="http://www.w3.org/2000/svg" data-name="Layer 1" viewBox="0 0 325 350.01">
  <path fill="#ff826c" d="M200 0v174.86h-10V110h-30v20h-14.8v44.86H110V240h100.2v-60H230V0h-30z"/>
  <path fill="#162e57" d="M195 85h-49.8v45H160v-20h35V85z"/>
  <path fill="#d4ebf2" d="M50 240h64.72v60H50zm185.18-60.26V240H125v60h165V179.74h-54.82z"/>
  <path fill="#ff826c" d="M290 205h30v20h-30z"/>
  <path fill="#d4ebf2" d="M80 309.98h70v10.03H80zM0 300h70v10.03H0zm255 0h70v10.03h-70zm-115 29.98h70v10.03h-70zm-105 10h70v10.03H35z"/>
  <path fill="#ff826c" d="M100 185h30v125h-30z"/>
</svg>
