<svg xmlns="http://www.w3.org/2000/svg" data-name="Layer 1" viewBox="0 0 150 150">
  <path fill="#162e57" d="m100.52 58.11 3.94 2.28 3.94 2.27 6.76-11.7-3.94-2.27 4.55-7.89-7.89-4.55-4.55 7.89-2.2 3.81-15.77-9.1 2.2-3.82 4.56-7.88-7.89-4.56-4.55 7.89-3.94-2.28-6.83 11.83 7.88 4.55-2.2 3.81 23.66 13.66 2.27-3.94zM51.75 87.95l-2.27 3.94-3.94-2.28-3.94-2.27-6.76 11.7 3.94 2.27-4.55 7.89 7.89 4.55 6.82-11.83 15.77 9.11-6.83 11.82 7.89 4.56 4.55-7.89 3.94 2.28 6.76-11.7-3.94-2.28-3.95-2.28 2.28-3.93-23.66-13.66z"/>
  <path fill="#ff826c" d="m75.41 101.6-3.94-2.27L94.3 59.78l3.94 2.27h.01L74.59 48.39v.01l3.94 2.27L55.7 90.22l-3.94-2.27h-.01l23.66 13.66v-.01z"/>
</svg>
