<svg id="aa0241e5-d9cf-4e93-b83f-4d24f8d4da9a" data-name="Layer 1" xmlns="http://www.w3.org/2000/svg" viewBox="0 0 290 495">
  <g>
    <polygon points="114.46 90 0 90 0 295 34.46 295 34.46 495 64.46 495 64.46 295 79.46 295 79.46 495 109.46 495 109.46 295 114.46 295 114.46 90" fill="#162e57"/>
    <polygon points="94.46 25.16 94.46 0 49.46 0 49.46 25.16 49.46 35.16 109.46 35.16 109.46 25.16 94.46 25.16" fill="#162e57"/>
  </g>
  <polygon points="280 125 280 120 285 120 290 120 290 105.16 285 105.16 285 95.16 275 95.16 275 105.16 275 110 255 110 255 105.16 255 95.16 245 95.16 245 105.16 240 105.16 240 120.16 250 120.16 250 125 255 125 255 175.16 250 175.16 250 180.16 245 180.16 240 180.16 240 195 245 195 245 205 255 205 255 190 275 190 275 205 285 205 285 195 290 195 290 180.16 285 180.16 280 180.16 280 175.16 275 175.16 275 125 280 125" fill="#10113a"/>
  <g>
    <polygon points="94.46 90 94.46 35.16 49.38 35.16 49.38 90 74.46 90 74.46 120 104.46 120 104.46 90 94.46 90" fill="#ff826c"/>
    <polygon points="55 90 0 90 0 155 0 210.16 0 305 34.46 305 34.46 210.16 55 210.16 55 90" fill="#ff826c"/>
    <polygon points="275 125 240 125 240 130 155 130 114.46 130 114.46 165 155 165 255 165 255 142.53 275 142.53 275 125" fill="#ff826c"/>
  </g>
</svg>
