<svg xmlns="http://www.w3.org/2000/svg" data-name="aefb6044-044f-4f8d-bc9f-2a475efc35ba" viewBox="0 0 420 390">
  <path fill="#ff826c" d="M155 20h40v50.21h-40Zm0-20h50v20h-50Z"/>
  <path fill="#d4ebf2" d="M255 150H155V40H70v30H40v140.57h115V180h100v-30z"/>
  <path fill="#ff826c" d="M280 180h-25v-25h25Z"/>
  <path fill="#10113a" d="M40 210v40h145v140h40V210Zm305-110v85h-90v12.54h110V100Z"/>
  <path fill="#ff826c" d="M240 195h177.33v25H240Zm75 25h30v170h-30Z"/>
  <path fill="#10113a" d="M315 220h30v15h-30Z"/>
  <path fill="#ff826c" d="M30 250V105H0v170h10v115h20V275h80v115h20V275h10v-25Z"/>
  <path fill="#d4ebf2" d="M410 155v-10h-30v50h30v-15h5v-5h-5v-14.95h5V175h5v-20h-10z"/>
  <path fill="#ff826c" d="M385 55h10v20h-10Zm-10 30h10v10h-10Zm20-40h10v10h-10Zm-5 55h15v10h-15Zm10 20h5v15h-5Zm-10 20h5v5h-5Z"/>
</svg>
